<svg xmlns="http://www.w3.org/2000/svg" xmlns:xlink="http://www.w3.org/1999/xlink" width="500" zoomAndPan="magnify" viewBox="0 0 375 374.999991" height="500" preserveAspectRatio="xMidYMid meet" version="1.0"><defs><g/><clipPath id="413a615d81"><path d="M 187.5 0 C 83.945312 0 0 83.945312 0 187.5 C 0 291.054688 83.945312 375 187.5 375 C 291.054688 375 375 291.054688 375 187.5 C 375 83.945312 291.054688 0 187.5 0 Z M 187.5 0 " clip-rule="nonzero"/></clipPath><clipPath id="b4114fb668"><path d="M 0 0 L 375 0 L 375 375 L 0 375 Z M 0 0 " clip-rule="nonzero"/></clipPath><clipPath id="02d2f74560"><path d="M 187.5 0 C 83.945312 0 0 83.945312 0 187.5 C 0 291.054688 83.945312 375 187.5 375 C 291.054688 375 375 291.054688 375 187.5 C 375 83.945312 291.054688 0 187.5 0 Z M 187.5 0 " clip-rule="nonzero"/></clipPath><clipPath id="66f7fee432"><rect x="0" width="375" y="0" height="375"/></clipPath><clipPath id="44a7358375"><path d="M 66.527344 66.527344 L 308.472656 66.527344 L 308.472656 308.472656 L 66.527344 308.472656 Z M 66.527344 66.527344 " clip-rule="nonzero"/></clipPath><clipPath id="06d1da3b78"><path d="M 187.5 66.527344 C 120.6875 66.527344 66.527344 120.6875 66.527344 187.5 C 66.527344 254.3125 120.6875 308.472656 187.5 308.472656 C 254.3125 308.472656 308.472656 254.3125 308.472656 187.5 C 308.472656 120.6875 254.3125 66.527344 187.5 66.527344 Z M 187.5 66.527344 " clip-rule="nonzero"/></clipPath><clipPath id="5f19be2713"><path d="M 0.527344 0.527344 L 242.472656 0.527344 L 242.472656 242.472656 L 0.527344 242.472656 Z M 0.527344 0.527344 " clip-rule="nonzero"/></clipPath><clipPath id="fde3ba0cc4"><path d="M 121.5 0.527344 C 54.6875 0.527344 0.527344 54.6875 0.527344 121.5 C 0.527344 188.3125 54.6875 242.472656 121.5 242.472656 C 188.3125 242.472656 242.472656 188.3125 242.472656 121.5 C 242.472656 54.6875 188.3125 0.527344 121.5 0.527344 Z M 121.5 0.527344 " clip-rule="nonzero"/></clipPath><clipPath id="67bf874d33"><rect x="0" width="243" y="0" height="243"/></clipPath><clipPath id="05f2bd6677"><path d="M 0 98.171875 L 375 98.171875 L 375 375 L 0 375 Z M 0 98.171875 " clip-rule="nonzero"/></clipPath><clipPath id="a5274c9106"><path d="M 187.5 98.171875 L 404.023438 508.144531 L -29.023438 508.144531 Z M 187.5 98.171875 " clip-rule="nonzero"/></clipPath><clipPath id="0f4217ffe3"><path d="M 0 0.171875 L 375 0.171875 L 375 277 L 0 277 Z M 0 0.171875 " clip-rule="nonzero"/></clipPath><clipPath id="ca1f5799a3"><path d="M 187.5 0.171875 L 404.023438 410.144531 L -29.023438 410.144531 Z M 187.5 0.171875 " clip-rule="nonzero"/></clipPath><clipPath id="8bb016993a"><rect x="0" width="375" y="0" height="277"/></clipPath><clipPath id="76af0040d9"><path d="M 0 195.949219 L 375 195.949219 L 375 375 L 0 375 Z M 0 195.949219 " clip-rule="nonzero"/></clipPath><clipPath id="1062f89594"><path d="M 0 0.949219 L 375 0.949219 L 375 180 L 0 180 Z M 0 0.949219 " clip-rule="nonzero"/></clipPath><clipPath id="17bc809498"><rect x="0" width="375" y="0" height="180"/></clipPath><clipPath id="ad524f887e"><path d="M 2 94 L 293 94 L 293 342 L 2 342 Z M 2 94 " clip-rule="nonzero"/></clipPath><clipPath id="ac73806eb1"><rect x="0" width="294" y="0" height="342"/></clipPath></defs><rect x="-37.5" width="450" fill="#ffffff" y="-37.499999" height="449.999989" fill-opacity="1"/><rect x="-37.5" width="450" fill="#ffffff" y="-37.499999" height="449.999989" fill-opacity="1"/><g clip-path="url(#413a615d81)"><g transform="matrix(1, 0, 0, 1, 0, 0)"><g clip-path="url(#66f7fee432)"><g clip-path="url(#b4114fb668)"><g clip-path="url(#02d2f74560)"><rect x="-82.5" width="540" fill="#01adef" height="539.999987" y="-82.499998" fill-opacity="1"/></g></g></g></g></g><g clip-path="url(#44a7358375)"><g clip-path="url(#06d1da3b78)"><g transform="matrix(1, 0, 0, 1, 66, 66)"><g clip-path="url(#67bf874d33)"><g clip-path="url(#5f19be2713)"><g clip-path="url(#fde3ba0cc4)"><path fill="#ffffff" d="M 0.527344 0.527344 L 242.472656 0.527344 L 242.472656 242.472656 L 0.527344 242.472656 Z M 0.527344 0.527344 " fill-opacity="1" fill-rule="nonzero"/></g></g></g></g></g></g><g clip-path="url(#05f2bd6677)"><g clip-path="url(#a5274c9106)"><g transform="matrix(1, 0, 0, 1, 0, 98)"><g clip-path="url(#8bb016993a)"><g clip-path="url(#0f4217ffe3)"><g clip-path="url(#ca1f5799a3)"><path fill="#ffffff" d="M -29.023438 0.171875 L 403.371094 0.171875 L 403.371094 410.144531 L -29.023438 410.144531 Z M -29.023438 0.171875 " fill-opacity="1" fill-rule="nonzero"/></g></g></g></g></g></g><g clip-path="url(#76af0040d9)"><g transform="matrix(1, 0, 0, 1, 0, 195)"><g clip-path="url(#17bc809498)"><g clip-path="url(#1062f89594)"><path fill="#ffffff" d="M -62.902344 0.949219 L 438.316406 0.949219 L 438.316406 313.144531 L -62.902344 313.144531 Z M -62.902344 0.949219 " fill-opacity="1" fill-rule="nonzero"/></g></g></g></g><g transform="matrix(1, 0, 0, 1, 40, 33)"><g clip-path="url(#ac73806eb1)"><g clip-path="url(#ad524f887e)"><g fill="#202b61" fill-opacity="1"><g transform="translate(7.369923, 344.002374)"><g><path d="M 192.15625 -48.484375 L 86.640625 -48.484375 L 67.03125 0 L -4.984375 0 L 105.171875 -249.5625 L 174.6875 -249.5625 L 285.21875 0 L 211.765625 0 Z M 171.484375 -100.53125 L 139.390625 -180.390625 L 107.3125 -100.53125 Z M 171.484375 -100.53125 "/></g></g></g></g></g></g><path stroke-linecap="butt" transform="matrix(0.75, 0, 0, 0.75, 0.0000045, 209.710181)" fill="none" stroke-linejoin="miter" d="M -0.000006 10.001009 L 88.703125 10.001009 " stroke="#202b61" stroke-width="20" stroke-opacity="1" stroke-miterlimit="4"/><path stroke-linecap="butt" transform="matrix(0.75, 0, 0, 0.75, 308.473813, 209.710181)" fill="none" stroke-linejoin="miter" d="M -0.00154239 10.001009 L 88.701588 10.001009 " stroke="#202b61" stroke-width="20" stroke-opacity="1" stroke-miterlimit="4"/></svg>